<svg fill="none" height="792" viewBox="0 0 2253 792" width="2253" xmlns="http://www.w3.org/2000/svg"><path d="m475.861 592c110.457 0 200-89.543 200-200v-200c-110.457 0-200 89.543-200 200z" fill="#982e0a"/><path d="m337.93 592c110.457 0 200-89.543 200-200v-200c-110.457 0-200 89.543-200 200z" fill="#fd5a3b"/><path d="m200 592c110.457 0 200-89.543 200-200v-200c-110.457 0-200 89.543-200 200z" fill="#fa9a87"/><g fill="#282624"><path d="m776 199.692v384.616h131.868c103.292 0 158.242-51.099 158.242-156.044v-72.528c0-104.945-54.95-156.044-158.242-156.044zm72.527 65.934h60.44c62.088 0 84.615 31.869 84.615 87.912v76.924c0 56.044-22.527 87.912-84.615 87.912h-60.44z"/><path d="m1110.18 351.341v81.318c0 101.099 59.89 159.341 158.24 159.341 98.36 0 158.25-58.242 158.25-159.341v-81.318c0-98.352-59.89-159.341-158.25-159.341-98.35 0-158.24 60.989-158.24 159.341zm72.53-3.297c0-52.198 30.22-91.209 85.71-91.209 53.85 0 85.72 36.813 85.72 91.209v87.912c0 53.297-25.83 91.209-85.72 91.209-58.24 0-85.71-35.714-85.71-91.209z"/><path d="m1553.64 199.692-106.59 384.616h74.72l23.08-85.715h134.06l23.08 85.715h74.73l-106.6-384.616zm8.24 232.967 46.7-172.527h6.6l46.7 172.527z"/><path d="m2053.37 199.692h-72.52v269.231c0 36.264-18.69 57.143-51.1 57.143-34.62 0-54.4-21.429-54.4-57.143v-36.264h-72.53v36.264c0 77.473 50 123.077 129.12 123.077 75.28 0 121.43-43.407 121.43-123.077z"/></g></svg>